<svg xmlns="http://www.w3.org/2000/svg" viewBox="0 0 64 64">
  <defs>
    <linearGradient id="bg" x1="0" y1="0" x2="1" y2="1">
      <stop offset="0%" stop-color="#34d399"/>
      <stop offset="100%" stop-color="#059669"/>
    </linearGradient>
  </defs>
  <rect x="6" y="4" width="52" height="56" rx="10" fill="url(#bg)"/>
  <rect x="14" y="12" width="36" height="42" rx="6" fill="#ffffff"/>
  <rect x="20" y="20" width="8" height="8" rx="2" fill="#10b981"/>
  <path d="M22 24l2 2 4-5" fill="none" stroke="#ffffff" stroke-width="2" stroke-linecap="round" stroke-linejoin="round"/>
  <rect x="32" y="22" width="12" height="3" rx="1.5" fill="#6ee7b7"/>
  <rect x="20" y="32" width="8" height="8" rx="2" fill="#10b981"/>
  <path d="M22 36l2 2 4-5" fill="none" stroke="#ffffff" stroke-width="2" stroke-linecap="round" stroke-linejoin="round"/>
  <rect x="32" y="34" width="12" height="3" rx="1.5" fill="#6ee7b7"/>
  <rect x="20" y="44" width="8" height="8" rx="2" fill="#10b981"/>
  <path d="M22 48l2 2 4-5" fill="none" stroke="#ffffff" stroke-width="2" stroke-linecap="round" stroke-linejoin="round"/>
  <rect x="32" y="46" width="12" height="3" rx="1.5" fill="#6ee7b7"/>
</svg>
