<svg xmlns="http://www.w3.org/2000/svg" width="512" height="512" viewBox="0 0 512 512" role="img" aria-labelledby="title desc">
  <title id="title">Novel Day icon</title>
  <desc id="desc">Open book and sun icon representing daily writing.</desc>
  <defs>
    <linearGradient id="bg" x1="0" y1="0" x2="1" y2="1">
      <stop offset="0%" stop-color="#153a5b" />
      <stop offset="100%" stop-color="#2e7d5f" />
    </linearGradient>
    <linearGradient id="book" x1="0" y1="0" x2="0" y2="1">
      <stop offset="0%" stop-color="#ffffff" />
      <stop offset="100%" stop-color="#d8edf2" />
    </linearGradient>
  </defs>

  <rect width="512" height="512" rx="108" fill="url(#bg)" />

  <circle cx="256" cy="160" r="62" fill="#f6d977" />
  <g stroke="#f6d977" stroke-width="12" stroke-linecap="round" opacity="0.85">
    <line x1="256" y1="66" x2="256" y2="40" />
    <line x1="315" y1="82" x2="333" y2="60" />
    <line x1="197" y1="82" x2="179" y2="60" />
  </g>

  <path d="M92 340c52-58 105-74 158-74s106 16 170 74v88c-62-39-112-52-164-52s-102 13-164 52z" fill="url(#book)" />
  <path d="M256 266v157" stroke="#8ab9cc" stroke-width="9" stroke-linecap="round" />
  <path d="M126 373c44-24 85-34 130-34" stroke="#9ac8d8" stroke-width="7" stroke-linecap="round" fill="none" />
  <path d="M385 373c-44-24-85-34-130-34" stroke="#9ac8d8" stroke-width="7" stroke-linecap="round" fill="none" />
</svg>
